<?xml version="1.0" standalone="no"?>
<!DOCTYPE svg PUBLIC "-//W3C//DTD SVG 20010904//EN"
 "http://www.w3.org/TR/2001/REC-SVG-20010904/DTD/svg10.dtd">
<svg version="1.0" xmlns="http://www.w3.org/2000/svg"
 width="160.000000pt" height="160.000000pt" viewBox="0 0 160.000000 160.000000"
 preserveAspectRatio="xMidYMid meet">
<metadata>
Created by potrace 1.11, written by Peter Selinger 2001-2013
</metadata>
<g transform="translate(0.000000,160.000000) scale(0.100000,-0.100000)"
fill="#000000" stroke="none">
<path d="M0 800 l0 -800 800 0 800 0 0 800 0 800 -800 0 -800 0 0 -800z m1535
0 l0 -735 -735 0 -735 0 -3 725 c-1 399 0 731 3 738 3 10 156 12 737 10 l733
-3 0 -735z"/>
<path d="M210 785 l0 -435 90 0 90 0 0 103 0 103 35 34 c19 18 36 32 38 29 3
-2 39 -64 82 -137 l78 -132 109 0 c106 0 108 0 98 20 -6 11 -58 96 -117 187
-58 92 -108 173 -110 181 -4 9 40 59 113 133 l119 119 -116 0 -116 0 -104
-114 -104 -114 -3 229 -2 229 -90 0 -90 0 0 -435z"/>
<path d="M900 275 l0 -55 285 0 285 0 0 55 0 55 -285 0 -285 0 0 -55z"/>
</g>
</svg>
