<?xml version="1.0" encoding="utf-8"?>
<!-- Generator: Adobe Illustrator 17.0.0, SVG Export Plug-In . SVG Version: 6.00 Build 0)  -->
<!DOCTYPE svg PUBLIC "-//W3C//DTD SVG 1.1//EN" "http://www.w3.org/Graphics/SVG/1.1/DTD/svg11.dtd">
<svg version="1.1" id="Capa_1" xmlns="http://www.w3.org/2000/svg" xmlns:xlink="http://www.w3.org/1999/xlink" x="0px" y="0px"
	 width="401.71px" height="401.71px" viewBox="0 0 401.71 401.71" enable-background="new 0 0 401.71 401.71" xml:space="preserve">
<g>
	<path fill="#FFFFFF" d="M56.529,135.331c3.432,7.045,8.948,10.566,16.563,10.566h54.819v246.681c0,2.67,0.855,4.856,2.566,6.571
		c1.714,1.71,3.897,2.562,6.567,2.562l200.995,0c3.999,0,6.757-1.707,8.282-5.14c1.52-3.806,1.141-7.142-1.143-9.996l-45.683-54.816
		c-1.713-2.094-4.093-3.142-7.139-3.142h-91.363V145.894h54.821c7.611,0,13.135-3.522,16.562-10.566
		c3.234-7.043,2.379-13.509-2.568-19.414L178.445,6.28C175.019,2.093,170.354,0,164.455,0c-5.89,0-10.558,2.096-13.986,6.28
		L59.107,115.914C53.964,122.009,53.105,128.481,56.529,135.331z"/>
</g>
</svg>
